<svg width="17" height="12" viewBox="0 0 17 12" fill="none" xmlns="http://www.w3.org/2000/svg">
<path d="M0.99008 7.33329H1.98016C2.52697 7.33329 2.97024 7.78101 2.97024 8.33329V10.3333C2.97024 10.8856 2.52697 11.3333 1.98016 11.3333H0.99008C0.443274 11.3333 0 10.8856 0 10.3333V8.33329C0 7.78101 0.443274 7.33329 0.99008 7.33329ZM5.61044 5.33329H6.60052C7.14733 5.33329 7.5906 5.78101 7.5906 6.33329V10.3333C7.5906 10.8856 7.14733 11.3333 6.60052 11.3333H5.61044C5.06364 11.3333 4.62036 10.8856 4.62036 10.3333V6.33329C4.62036 5.78101 5.06364 5.33329 5.61044 5.33329ZM10.2308 2.99996H11.2209C11.7677 2.99996 12.211 3.44767 12.211 3.99996V10.3333C12.211 10.8856 11.7677 11.3333 11.2209 11.3333H10.2308C9.68403 11.3333 9.24075 10.8856 9.24075 10.3333V3.99996C9.24075 3.44767 9.68403 2.99996 10.2308 2.99996ZM14.8512 0.666626H15.8413C16.3881 0.666626 16.8314 1.11434 16.8314 1.66663V10.3333C16.8314 10.8856 16.3881 11.3333 15.8413 11.3333H14.8512C14.3044 11.3333 13.8611 10.8856 13.8611 10.3333V1.66663C13.8611 1.11434 14.3044 0.666626 14.8512 0.666626Z" fill="white"/>
</svg>
