<svg width="20" height="20" viewBox="0 0 20 20" fill="none" xmlns="http://www.w3.org/2000/svg">
<path d="M5 12.8125C6.5533 12.8125 7.8125 11.5533 7.8125 10C7.8125 8.4467 6.5533 7.1875 5 7.1875C3.4467 7.1875 2.1875 8.4467 2.1875 10C2.1875 11.5533 3.4467 12.8125 5 12.8125Z" stroke="black" stroke-width="1.5" stroke-linecap="round" stroke-linejoin="round"/>
<path d="M15 17.8125C16.5533 17.8125 17.8125 16.5533 17.8125 15C17.8125 13.4467 16.5533 12.1875 15 12.1875C13.4467 12.1875 12.1875 13.4467 12.1875 15C12.1875 16.5533 13.4467 17.8125 15 17.8125Z" stroke="black" stroke-width="1.5" stroke-linecap="round" stroke-linejoin="round"/>
<path d="M15 7.8125C16.5533 7.8125 17.8125 6.5533 17.8125 5C17.8125 3.4467 16.5533 2.1875 15 2.1875C13.4467 2.1875 12.1875 3.4467 12.1875 5C12.1875 6.5533 13.4467 7.8125 15 7.8125Z" stroke="black" stroke-width="1.5" stroke-linecap="round" stroke-linejoin="round"/>
<path d="M7.5 11.25L12.5 13.75M7.5 8.75L12.5 6.25" stroke="black" stroke-width="1.5" stroke-linecap="round" stroke-linejoin="round"/>
</svg>
