<svg width="36" height="36" viewBox="0 0 36 36" fill="none" xmlns="http://www.w3.org/2000/svg">
<g clip-path="url(#clip0_66_2722)">
<path d="M16.25 11.75H12.875C12.2783 11.75 11.706 11.9871 11.284 12.409C10.8621 12.831 10.625 13.4033 10.625 14V24.125C10.625 24.7217 10.8621 25.294 11.284 25.716C11.706 26.1379 12.2783 26.375 12.875 26.375H23C23.5967 26.375 24.169 26.1379 24.591 25.716C25.0129 25.294 25.25 24.7217 25.25 24.125V20.75" stroke="black" stroke-width="2" stroke-linecap="round" stroke-linejoin="round"/>
<path d="M24.125 16.25C25.989 16.25 27.5 14.739 27.5 12.875C27.5 11.011 25.989 9.5 24.125 9.5C22.261 9.5 20.75 11.011 20.75 12.875C20.75 14.739 22.261 16.25 24.125 16.25Z" stroke="black" stroke-width="1.5" stroke-linecap="round" stroke-linejoin="round"/>
</g>
<defs>
<clipPath id="clip0_66_2722">
<rect width="36" height="36" fill="white"/>
</clipPath>
</defs>
</svg>
