<svg width="25" height="24" viewBox="0 0 25 24" fill="none" xmlns="http://www.w3.org/2000/svg">
<path d="M13.1797 24H11.8086V20.9414C10.332 20.8398 9.03906 20.4492 7.92969 19.7695C6.82812 19.082 5.96875 18.168 5.35156 17.0273C4.74219 15.8789 4.4375 14.5664 4.4375 13.0898V10.793C4.4375 10.6133 4.5 10.457 4.625 10.3242C4.75781 10.1836 4.92188 10.1133 5.11719 10.1133C5.30469 10.1133 5.46484 10.1836 5.59766 10.3242C5.73047 10.457 5.79688 10.6133 5.79688 10.793V13.043C5.79688 14.3555 6.07031 15.5117 6.61719 16.5117C7.17188 17.5039 7.94922 18.2773 8.94922 18.832C9.95703 19.3867 11.1406 19.6641 12.5 19.6641C13.8516 19.6641 15.0273 19.3867 16.0273 18.832C17.0273 18.2773 17.8047 17.5039 18.3594 16.5117C18.9141 15.5117 19.1914 14.3555 19.1914 13.043V10.793C19.1914 10.6133 19.2578 10.457 19.3906 10.3242C19.5234 10.1836 19.6836 10.1133 19.8711 10.1133C20.0586 10.1133 20.2188 10.1836 20.3516 10.3242C20.4844 10.457 20.5508 10.6133 20.5508 10.793V13.0898C20.5508 14.5664 20.2422 15.8789 19.625 17.0273C19.0156 18.168 18.1562 19.082 17.0469 19.7695C15.9453 20.4492 14.6562 20.8398 13.1797 20.9414V24Z" fill="#171717"/>
<path d="M14.4922 16.3828C13.9219 16.7344 13.2578 16.9102 12.5 16.9102C11.7344 16.9102 11.0664 16.7344 10.4961 16.3828C9.93359 16.0234 9.49219 15.5352 9.17188 14.918C8.85938 14.3008 8.70312 13.5898 8.70312 12.7852V4.94531C8.70312 4.14844 8.85938 3.44141 9.17188 2.82422C9.49219 2.19922 9.93359 1.71094 10.4961 1.35938C11.0664 1 11.7344 0.820312 12.5 0.820312C13.2578 0.820312 13.9219 1 14.4922 1.35938C15.0625 1.71094 15.5039 2.19922 15.8164 2.82422C16.1289 3.44141 16.2852 4.14844 16.2852 4.94531V12.7852C16.2852 13.5898 16.1289 14.3008 15.8164 14.918C15.5039 15.5352 15.0625 16.0234 14.4922 16.3828Z" fill="#171717"/>
</svg>
