<svg width="27" height="24" viewBox="0 0 27 24" fill="none" xmlns="http://www.w3.org/2000/svg">
<g clip-path="url(#clip0_66_2740)">
<path d="M19.125 5.625C19.125 8.18437 15.6984 12.7453 14.1937 14.625C13.8328 15.075 13.1625 15.075 12.8063 14.625C11.3016 12.7453 7.875 8.18437 7.875 5.625C7.875 2.51719 10.3922 0 13.5 0C16.6078 0 19.125 2.51719 19.125 5.625ZM19.5 9.39375C19.6641 9.07031 19.8141 8.74687 19.95 8.42812C19.9734 8.37187 19.9969 8.31094 20.0203 8.25469L25.4578 6.07969C26.1984 5.78437 27 6.32812 27 7.125V19.8187C27 20.2781 26.7188 20.6906 26.2922 20.8641L19.5 23.5781V9.39375ZM6.45 6.48281C6.5625 7.14375 6.7875 7.80937 7.05 8.42812C7.18594 8.74687 7.33594 9.07031 7.5 9.39375V21.1781L1.54219 23.5641C0.801563 23.8594 0 23.3156 0 22.5187V9.825C0 9.36562 0.28125 8.95312 0.707813 8.77969L6.45469 6.48281H6.45ZM15.3656 15.5625C16.0172 14.7469 17.0391 13.4203 18 11.9531V23.6391L9 21.0656V11.9531C9.96094 13.4203 10.9828 14.7469 11.6344 15.5625C12.5953 16.7625 14.4047 16.7625 15.3656 15.5625ZM13.5 7.125C14.5359 7.125 15.375 6.28594 15.375 5.25C15.375 4.21406 14.5359 3.375 13.5 3.375C12.4641 3.375 11.625 4.21406 11.625 5.25C11.625 6.28594 12.4641 7.125 13.5 7.125Z" fill="black"/>
</g>
<defs>
<clipPath id="clip0_66_2740">
<rect width="27" height="24" fill="white"/>
</clipPath>
</defs>
</svg>
