<svg width="33" height="33" viewBox="0 0 33 33" fill="none" xmlns="http://www.w3.org/2000/svg">
<path d="M14.7812 19.25C15.6018 19.25 16.3887 19.5759 16.9689 20.1561C17.5491 20.7363 17.875 21.5232 17.875 22.3438V24.409L17.864 24.5575C17.4377 27.4821 14.8115 28.8874 10.4046 28.8874C6.01425 28.8874 3.34537 27.4986 2.76925 24.6084L2.75 24.4062V22.3438C2.75 21.5232 3.07595 20.7363 3.65614 20.1561C4.23633 19.5759 5.02324 19.25 5.84375 19.25H14.7812ZM14.7812 21.3125H5.84375C5.57025 21.3125 5.30794 21.4212 5.11455 21.6145C4.92115 21.8079 4.8125 22.0702 4.8125 22.3438V24.2962C5.1975 25.9463 6.94375 26.8249 10.4046 26.8249C13.8641 26.8249 15.5334 25.9573 15.8125 24.3279V22.3438C15.8125 22.0702 15.7038 21.8079 15.5105 21.6145C15.3171 21.4212 15.0548 21.3125 14.7812 21.3125ZM10.3125 8.25C10.9445 8.25 11.5703 8.37448 12.1542 8.61633C12.738 8.85818 13.2686 9.21267 13.7155 9.65955C14.1623 10.1064 14.5168 10.637 14.7587 11.2208C15.0005 11.8047 15.125 12.4305 15.125 13.0625C15.125 13.6945 15.0005 14.3203 14.7587 14.9042C14.5168 15.488 14.1623 16.0186 13.7155 16.4655C13.2686 16.9123 12.738 17.2668 12.1542 17.5087C11.5703 17.7505 10.9445 17.875 10.3125 17.875C9.03615 17.875 7.81207 17.368 6.90955 16.4655C6.00703 15.5629 5.5 14.3389 5.5 13.0625C5.5 11.7861 6.00703 10.5621 6.90955 9.65955C7.81207 8.75703 9.03615 8.25 10.3125 8.25ZM27.1562 2.75C27.9768 2.75 28.7637 3.07595 29.3439 3.65614C29.9241 4.23633 30.25 5.02324 30.25 5.84375V10.6562C30.25 11.0625 30.17 11.4648 30.0145 11.8402C29.859 12.2155 29.6311 12.5566 29.3439 12.8439C29.0566 13.1311 28.7155 13.359 28.3402 13.5145C27.9648 13.67 27.5625 13.75 27.1562 13.75H25.1556L22.1774 16.6939C21.9363 16.9323 21.6301 17.0941 21.2973 17.1589C20.9646 17.2237 20.62 17.1887 20.3071 17.0582C19.9942 16.9276 19.7269 16.7075 19.5388 16.4254C19.3507 16.1433 19.2502 15.8119 19.25 15.4729V13.7308C18.4937 13.6462 17.7952 13.2859 17.2878 12.7187C16.7805 12.1515 16.5 11.4172 16.5 10.6562V5.84375C16.5 5.02324 16.8259 4.23633 17.4061 3.65614C17.9863 3.07595 18.7732 2.75 19.5938 2.75H27.1562ZM10.3125 10.3125C9.58315 10.3125 8.88368 10.6022 8.36796 11.118C7.85223 11.6337 7.5625 12.3332 7.5625 13.0625C7.5625 13.7918 7.85223 14.4913 8.36796 15.007C8.88368 15.5228 9.58315 15.8125 10.3125 15.8125C11.0418 15.8125 11.7413 15.5228 12.257 15.007C12.7728 14.4913 13.0625 13.7918 13.0625 13.0625C13.0625 12.3332 12.7728 11.6337 12.257 11.118C11.7413 10.6022 11.0418 10.3125 10.3125 10.3125ZM27.1562 4.8125H19.5938C19.3202 4.8125 19.0579 4.92115 18.8645 5.11455C18.6712 5.30794 18.5625 5.57025 18.5625 5.84375V10.6562C18.5625 11.2255 19.0245 11.6875 19.5938 11.6875H21.3111V14.6493L24.31 11.6875H27.1576C27.4311 11.6875 27.6934 11.5788 27.8868 11.3855C28.0802 11.1921 28.1889 10.9298 28.1889 10.6562V5.84375C28.1889 5.57025 28.0802 5.30794 27.8868 5.11455C27.6934 4.92115 27.4311 4.8125 27.1576 4.8125H27.1562Z" fill="#6D422A"/>
</svg>
