<svg width="25" height="25" viewBox="0 0 25 25" fill="none" xmlns="http://www.w3.org/2000/svg">
<path d="M12.4063 14.5823L20.576 14.5834C21.1976 14.5834 21.7938 14.8303 22.2333 15.2698C22.6729 15.7094 22.9198 16.3055 22.9198 16.9271V17.8698C22.9198 18.4327 22.7981 18.989 22.5631 19.5005C22.3282 20.012 21.9854 20.4666 21.5583 20.8334C19.9271 22.2344 17.5938 22.9188 14.5833 22.9188H14.3969C14.5168 22.6762 14.5815 22.4101 14.5862 22.1395C14.5909 21.869 14.5355 21.6007 14.424 21.3542L14.5833 21.3563C17.25 21.3563 19.2271 20.7771 20.5406 19.649C20.7968 19.4289 21.0024 19.1561 21.1434 18.8492C21.2844 18.5423 21.3573 18.2086 21.3573 17.8709V16.9281C21.3573 16.7209 21.275 16.5222 21.1285 16.3757C20.982 16.2292 20.7832 16.1469 20.576 16.1469H12.476C12.5236 15.625 12.5001 15.099 12.4063 14.5834V14.5823ZM6.77084 10.9375C7.66132 10.9376 8.53337 11.1912 9.28491 11.6689C10.0365 12.1465 10.6364 12.8283 11.0145 13.6345C11.3927 14.4407 11.5333 15.338 11.4201 16.2212C11.3068 17.1045 10.9443 17.9372 10.375 18.6219L13.3156 21.5531C13.4545 21.6926 13.5356 21.8792 13.5428 22.0758C13.55 22.2725 13.4827 22.4646 13.3545 22.6138C13.2262 22.763 13.0463 22.8583 12.8509 22.8806C12.6554 22.903 12.4587 22.8508 12.3 22.7344L12.2115 22.6594L9.18751 19.6427C8.56833 20.0149 7.87153 20.2388 7.15149 20.2972C6.43146 20.3556 5.70768 20.2467 5.03666 19.9791C4.36564 19.7116 3.76554 19.2925 3.28321 18.7548C2.80088 18.217 2.44938 17.575 2.25614 16.8789C2.06291 16.1828 2.03316 15.4515 2.16924 14.7421C2.30531 14.0326 2.60352 13.3642 3.04059 12.789C3.47765 12.2138 4.04174 11.7474 4.68882 11.4263C5.33589 11.1051 6.04844 10.9378 6.77084 10.9375ZM6.77084 12.5C5.94204 12.5 5.14718 12.8293 4.56113 13.4153C3.97508 14.0014 3.64584 14.7962 3.64584 15.625C3.64584 16.4538 3.97508 17.2487 4.56113 17.8347C5.14718 18.4208 5.94204 18.75 6.77084 18.75C7.59964 18.75 8.3945 18.4208 8.98055 17.8347C9.5666 17.2487 9.89584 16.4538 9.89584 15.625C9.89584 14.7962 9.5666 14.0014 8.98055 13.4153C8.3945 12.8293 7.59964 12.5 6.77084 12.5ZM14.5833 2.08856C15.2673 2.08856 15.9446 2.22328 16.5765 2.48502C17.2084 2.74677 17.7825 3.13041 18.2662 3.61405C18.7498 4.09769 19.1335 4.67185 19.3952 5.30375C19.657 5.93566 19.7917 6.61293 19.7917 7.2969C19.7917 7.98086 19.657 8.65813 19.3952 9.29004C19.1335 9.92194 18.7498 10.4961 18.2662 10.9797C17.7825 11.4634 17.2084 11.847 16.5765 12.1088C15.9446 12.3705 15.2673 12.5052 14.5833 12.5052C13.202 12.5052 11.8772 11.9565 10.9005 10.9797C9.92374 10.003 9.37501 8.67823 9.37501 7.2969C9.37501 5.91556 9.92374 4.5908 10.9005 3.61405C11.8772 2.6373 13.202 2.08856 14.5833 2.08856ZM14.5833 3.65106C14.1046 3.65106 13.6305 3.74536 13.1881 3.92858C12.7458 4.1118 12.3439 4.38035 12.0053 4.7189C11.6668 5.05745 11.3982 5.45936 11.215 5.9017C11.0318 6.34403 10.9375 6.81812 10.9375 7.2969C10.9375 7.77567 11.0318 8.24976 11.215 8.69209C11.3982 9.13443 11.6668 9.53634 12.0053 9.87489C12.3439 10.2134 12.7458 10.482 13.1881 10.6652C13.6305 10.8484 14.1046 10.9427 14.5833 10.9427C15.5503 10.9427 16.4776 10.5586 17.1613 9.87489C17.8451 9.19116 18.2292 8.26383 18.2292 7.2969C18.2292 6.32996 17.8451 5.40263 17.1613 4.7189C16.4776 4.03518 15.5503 3.65106 14.5833 3.65106Z" fill="black"/>
</svg>
