<svg width="25" height="12" viewBox="0 0 25 12" fill="none" xmlns="http://www.w3.org/2000/svg">
<path opacity="0.35" fill-rule="evenodd" clip-rule="evenodd" d="M4.29776 0.833008C3.29949 0.833008 2.90475 0.910001 2.4973 1.13009C2.15331 1.3159 1.88631 1.58558 1.70234 1.93301C1.48443 2.34455 1.4082 2.74325 1.4082 3.75152V8.24783C1.4082 9.2561 1.48443 9.6548 1.70234 10.0663C1.88631 10.4138 2.15331 10.6834 2.4973 10.8693C2.90475 11.0893 3.29949 11.1663 4.29776 11.1663H19.3103C20.3086 11.1663 20.7033 11.0893 21.1108 10.8693C21.4548 10.6834 21.7218 10.4138 21.9057 10.0663C22.1236 9.6548 22.1999 9.2561 22.1999 8.24783V3.75152C22.1999 2.74325 22.1236 2.34455 21.9057 1.93301C21.7218 1.58558 21.4548 1.3159 21.1108 1.13009C20.7033 0.910001 20.3086 0.833008 19.3103 0.833008H4.29776Z" stroke="white"/>
<path opacity="0.4" d="M23.6849 3.99969V7.99969C24.4817 7.66092 24.9998 6.87283 24.9998 5.99969C24.9998 5.12656 24.4817 4.33847 23.6849 3.99969Z" fill="white"/>
<path d="M4.58561 2.33301H19.0224C19.6109 2.33301 19.8243 2.39489 20.0394 2.5111C20.2545 2.6273 20.4234 2.79783 20.5384 3.01511C20.6535 3.23239 20.7147 3.44792 20.7147 4.04226V7.95708C20.7147 8.55143 20.6535 8.76695 20.5384 8.98424C20.4234 9.20152 20.2545 9.37205 20.0394 9.48825C19.8243 9.60446 19.6109 9.66634 19.0224 9.66634H4.58561C3.99716 9.66634 3.78378 9.60446 3.56865 9.48825C3.35352 9.37205 3.18468 9.20152 3.06963 8.98424C2.95458 8.76695 2.89331 8.55143 2.89331 7.95708V4.04226C2.89331 3.44792 2.95458 3.23239 3.06963 3.01511C3.18468 2.79783 3.35352 2.6273 3.56865 2.5111C3.78378 2.39489 3.99716 2.33301 4.58561 2.33301Z" fill="white"/>
</svg>
