<svg width="12" height="11" viewBox="0 0 12 11" fill="none" xmlns="http://www.w3.org/2000/svg">
<path d="M5.09776 10.9845C4.78005 10.9846 4.46314 10.9583 4.15183 10.9061C3.55153 10.8049 2.98131 10.6075 2.47371 10.3251C1.71908 9.90594 1.12839 9.31573 0.773209 8.62598C0.653135 8.3924 0.561464 8.14962 0.49954 7.90118C0.372386 7.38761 0.372386 6.85823 0.49954 6.34466C0.622502 5.85076 0.862465 5.38161 1.20574 4.96399C1.71518 4.34312 2.43254 3.85712 3.27089 3.5649C3.55479 3.46611 3.84987 3.39069 4.15183 3.33974C4.77604 3.23512 5.41948 3.23512 6.04369 3.33974C6.644 3.4409 7.21422 3.63833 7.72181 3.92076C8.47644 4.3399 9.06714 4.93011 9.42232 5.61987C9.54239 5.85344 9.63406 6.09622 9.69599 6.34466C9.82102 6.85004 9.82298 7.37081 9.70176 7.87682C9.5978 8.31206 9.40231 8.72903 9.1241 9.10897C8.70743 9.6814 8.11743 10.1551 7.41172 10.4838C6.70601 10.8126 5.90873 10.9851 5.09776 10.9845ZM6.71451 5.31391C6.63845 5.31386 6.56313 5.32617 6.49288 5.35012C6.42262 5.37408 6.3588 5.40922 6.30509 5.45352L4.66451 6.80152C4.55583 6.89109 4.49485 7.01252 4.49499 7.13908C4.49512 7.26565 4.55636 7.38699 4.66524 7.47641C4.77411 7.56582 4.92169 7.61599 5.07553 7.61588C5.22936 7.61577 5.37684 7.56539 5.48552 7.47581L6.30509 6.80152L7.12465 6.12782C7.20658 6.06144 7.26256 5.97646 7.28544 5.88375C7.30833 5.79104 7.29706 5.69483 7.25309 5.60742C7.20912 5.52001 7.13445 5.44539 7.03863 5.3931C6.94281 5.34081 6.83021 5.31324 6.71523 5.31391H6.71451Z" fill="url(#paint0_linear_20_1111)"/>
<path d="M2.80023 1.38555C2.80023 1.25163 2.8649 1.12318 2.98 1.02848C3.09511 0.933779 3.25122 0.880576 3.414 0.880576L7.09662 0.880576C7.25941 0.880576 7.41552 0.933779 7.53063 1.02848C7.64573 1.12318 7.71039 1.25163 7.71039 1.38555C7.71039 1.51948 7.64573 1.64793 7.53063 1.74263C7.41552 1.83733 7.25941 1.89053 7.09662 1.89053L3.414 1.89053C3.25122 1.89053 3.09511 1.83733 2.98 1.74263C2.8649 1.64793 2.80023 1.51948 2.80023 1.38555V1.38555Z" fill="url(#paint1_linear_20_1111)"/>
<path d="M9.10021 2.3288C9.21911 2.23097 9.38037 2.17602 9.54851 2.17602C9.71666 2.17602 9.87791 2.23097 9.99681 2.3288L10.8066 2.99505C10.9255 3.09287 10.9923 3.22555 10.9923 3.36389C10.9923 3.50223 10.9255 3.6349 10.8066 3.73273C10.6877 3.83055 10.5265 3.8855 10.3583 3.8855C10.1902 3.8855 10.0289 3.83055 9.91001 3.73273L9.10021 3.06647C8.98132 2.96865 8.91452 2.83597 8.91452 2.69763C8.91452 2.55929 8.98132 2.42662 9.10021 2.3288Z" fill="url(#paint2_linear_20_1111)"/>
<defs>
<linearGradient id="paint0_linear_20_1111" x1="5.09771" y1="3.26128" x2="5.09771" y2="10.9845" gradientUnits="userSpaceOnUse">
<stop stop-color="#FE724C"/>
<stop offset="1" stop-color="#FCA892"/>
</linearGradient>
<linearGradient id="paint1_linear_20_1111" x1="2.80023" y1="1.38555" x2="7.71039" y2="1.38555" gradientUnits="userSpaceOnUse">
<stop stop-color="#FE724C"/>
<stop offset="1" stop-color="#FCA892"/>
</linearGradient>
<linearGradient id="paint2_linear_20_1111" x1="9.10021" y1="2.3288" x2="10.4778" y2="4.00322" gradientUnits="userSpaceOnUse">
<stop stop-color="#FE724C"/>
<stop offset="1" stop-color="#FCA892"/>
</linearGradient>
</defs>
</svg>
