<svg width="29" height="29" viewBox="0 0 29 29" fill="none" xmlns="http://www.w3.org/2000/svg">
<path d="M14.5 2.71875C14.7404 2.71875 14.9709 2.81423 15.1408 2.98418C15.3108 3.15414 15.4062 3.38465 15.4062 3.625V6.34375C15.4062 6.5841 15.3108 6.81461 15.1408 6.98457C14.9709 7.15452 14.7404 7.25 14.5 7.25C14.2596 7.25 14.0291 7.15452 13.8592 6.98457C13.6892 6.81461 13.5938 6.5841 13.5938 6.34375V3.625C13.5938 3.38465 13.6892 3.15414 13.8592 2.98418C14.0291 2.81423 14.2596 2.71875 14.5 2.71875ZM9.0625 14.5C9.0625 13.0579 9.63538 11.6748 10.6551 10.6551C11.6748 9.63538 13.0579 9.0625 14.5 9.0625C15.9421 9.0625 17.3252 9.63538 18.3449 10.6551C19.3646 11.6748 19.9375 13.0579 19.9375 14.5C19.9375 15.9421 19.3646 17.3252 18.3449 18.3449C17.3252 19.3646 15.9421 19.9375 14.5 19.9375C13.0579 19.9375 11.6748 19.3646 10.6551 18.3449C9.63538 17.3252 9.0625 15.9421 9.0625 14.5ZM22.8302 7.45058C22.9903 7.27879 23.0775 7.05157 23.0733 6.81679C23.0692 6.58201 22.9741 6.358 22.808 6.19196C22.642 6.02592 22.418 5.93081 22.1832 5.92666C21.9484 5.92252 21.7212 6.00967 21.5494 6.16975L19.627 8.091C19.5404 8.17456 19.4713 8.27453 19.4237 8.38507C19.3762 8.49561 19.3511 8.61452 19.35 8.73485C19.3489 8.85518 19.3718 8.97452 19.4173 9.08592C19.4628 9.19732 19.5301 9.29853 19.6151 9.38366C19.7002 9.46879 19.8013 9.53613 19.9127 9.58175C20.024 9.62737 20.1434 9.65036 20.2637 9.64937C20.384 9.64838 20.5029 9.62344 20.6135 9.57599C20.7241 9.52855 20.8242 9.45956 20.9078 9.37304L22.8302 7.45179V7.45058ZM26.2812 14.5C26.2812 14.7404 26.1858 14.9709 26.0158 15.1408C25.8459 15.3108 25.6154 15.4062 25.375 15.4062H22.6562C22.4159 15.4062 22.1854 15.3108 22.0154 15.1408C21.8455 14.9709 21.75 14.7404 21.75 14.5C21.75 14.2596 21.8455 14.0291 22.0154 13.8592C22.1854 13.6892 22.4159 13.5938 22.6562 13.5938H25.375C25.6154 13.5938 25.8459 13.6892 26.0158 13.8592C26.1858 14.0291 26.2812 14.2596 26.2812 14.5ZM21.5494 22.8302C21.7212 22.9903 21.9484 23.0775 22.1832 23.0733C22.418 23.0692 22.642 22.9741 22.808 22.808C22.9741 22.642 23.0692 22.418 23.0733 22.1832C23.0775 21.9484 22.9903 21.7212 22.8302 21.5494L20.909 19.627C20.8254 19.5404 20.7255 19.4713 20.6149 19.4237C20.5044 19.3762 20.3855 19.3511 20.2652 19.35C20.1448 19.3489 20.0255 19.3718 19.9141 19.4173C19.8027 19.4628 19.7015 19.5301 19.6163 19.6151C19.5312 19.7002 19.4639 19.8013 19.4183 19.9127C19.3726 20.024 19.3496 20.1434 19.3506 20.2637C19.3516 20.384 19.3766 20.5029 19.424 20.6135C19.4715 20.7241 19.5404 20.8242 19.627 20.9078L21.5482 22.8302H21.5494ZM14.5 21.75C14.7404 21.75 14.9709 21.8455 15.1408 22.0154C15.3108 22.1854 15.4062 22.4159 15.4062 22.6562V25.375C15.4062 25.6154 15.3108 25.8459 15.1408 26.0158C14.9709 26.1858 14.7404 26.2812 14.5 26.2812C14.2596 26.2812 14.0291 26.1858 13.8592 26.0158C13.6892 25.8459 13.5938 25.6154 13.5938 25.375V22.6562C13.5938 22.4159 13.6892 22.1854 13.8592 22.0154C14.0291 21.8455 14.2596 21.75 14.5 21.75ZM9.37425 20.9078C9.53925 20.7368 9.63049 20.5078 9.62831 20.2702C9.62614 20.0326 9.53072 19.8053 9.36262 19.6374C9.19451 19.4694 8.96716 19.3742 8.72955 19.3723C8.49193 19.3703 8.26305 19.4618 8.09221 19.627L6.16975 21.5482C6.00459 21.7191 5.91313 21.9479 5.91508 22.1855C5.91704 22.4232 6.01224 22.6505 6.18019 22.8186C6.34813 22.9867 6.57539 23.0821 6.81301 23.0843C7.05062 23.0865 7.27959 22.9953 7.45058 22.8302L9.37304 20.909L9.37425 20.9078ZM7.25 14.5C7.25 14.7404 7.15452 14.9709 6.98457 15.1408C6.81461 15.3108 6.5841 15.4062 6.34375 15.4062H3.625C3.38465 15.4062 3.15414 15.3108 2.98418 15.1408C2.81423 14.9709 2.71875 14.7404 2.71875 14.5C2.71875 14.2596 2.81423 14.0291 2.98418 13.8592C3.15414 13.6892 3.38465 13.5938 3.625 13.5938H6.34375C6.5841 13.5938 6.81461 13.6892 6.98457 13.8592C7.15452 14.0291 7.25 14.2596 7.25 14.5ZM8.09221 9.37304C8.264 9.53312 8.49123 9.62027 8.72601 9.61613C8.96079 9.61199 9.18479 9.51688 9.35083 9.35083C9.51688 9.18479 9.61199 8.96079 9.61613 8.72601C9.62027 8.49123 9.53312 8.264 9.37304 8.09221L7.45179 6.16975C7.28095 6.00459 7.05207 5.91313 6.81445 5.91508C6.57684 5.91704 6.34949 6.01224 6.18138 6.18019C6.01328 6.34813 5.91786 6.57539 5.91569 6.81301C5.91351 7.05062 6.00475 7.27959 6.16975 7.45058L8.091 9.37304H8.09221Z" fill="black"/>
</svg>
