<svg width="30" height="32" viewBox="0 0 30 32" fill="none" xmlns="http://www.w3.org/2000/svg">
<path d="M25.5986 12.6062L16.5418 3.1725L16.5236 3.15375C16.1074 2.73344 15.5636 2.50033 14.9994 2.50033C14.4352 2.50033 13.8915 2.73344 13.4752 3.15375L13.456 3.1725L4.40141 12.6062C4.17179 12.8407 3.98848 13.1249 3.86295 13.441C3.73742 13.7572 3.67237 14.0986 3.67188 14.4437V26C3.67188 26.663 3.91057 27.2989 4.33546 27.7678C4.76035 28.2366 5.33662 28.5 5.9375 28.5H11.375C11.9759 28.5 12.5522 28.2366 12.977 27.7678C13.4019 27.2989 13.6406 26.663 13.6406 26V20.5H16.3594V26C16.3594 26.663 16.5981 27.2989 17.023 27.7678C17.4478 28.2366 18.0241 28.5 18.625 28.5H24.0625C24.6634 28.5 25.2397 28.2366 25.6645 27.7678C26.0894 27.2989 26.3281 26.663 26.3281 26V14.4437C26.3276 14.0986 26.2626 13.7572 26.1371 13.441C26.0115 13.1249 25.8282 12.8407 25.5986 12.6062ZM23.6094 25.5H19.0781V20C19.0781 19.6717 19.0195 19.3466 18.9057 19.0433C18.7918 18.74 18.6249 18.4644 18.4145 18.2322C18.2042 18.0001 17.9544 17.8159 17.6795 17.6903C17.4046 17.5647 17.11 17.5 16.8125 17.5H13.1875C12.5866 17.5 12.0103 17.7634 11.5855 18.2322C11.1606 18.7011 10.9219 19.337 10.9219 20V25.5H6.39062V14.66L15 5.69125L23.6094 14.66V25.5Z" fill="black"/>
</svg>
