<svg width="31" height="31" viewBox="0 0 31 31" fill="none" xmlns="http://www.w3.org/2000/svg">
<path d="M12.9167 7.75H9.04166C8.35652 7.75 7.69944 8.02217 7.21497 8.50664C6.7305 8.99111 6.45833 9.64819 6.45833 10.3333V21.9583C6.45833 22.6435 6.7305 23.3006 7.21497 23.785C7.69944 24.2695 8.35652 24.5417 9.04166 24.5417H20.6667C21.3518 24.5417 22.0089 24.2695 22.4934 23.785C22.9778 23.3006 23.25 22.6435 23.25 21.9583V18.0833" stroke="#6D422A" stroke-width="2" stroke-linecap="round" stroke-linejoin="round"/>
<path d="M21.9583 12.9167C24.0984 12.9167 25.8333 11.1818 25.8333 9.04167C25.8333 6.90157 24.0984 5.16667 21.9583 5.16667C19.8182 5.16667 18.0833 6.90157 18.0833 9.04167C18.0833 11.1818 19.8182 12.9167 21.9583 12.9167Z" stroke="#6D422A" stroke-width="2" stroke-linecap="round" stroke-linejoin="round"/>
</svg>
