<svg width="16" height="12" viewBox="0 0 16 12" fill="none" xmlns="http://www.w3.org/2000/svg">
<path d="M8.37277 2.61504C10.5754 2.61514 12.6939 3.46925 14.2902 5.00084C14.4104 5.11909 14.6026 5.1176 14.721 4.9975L15.8701 3.82717C15.93 3.76626 15.9634 3.68375 15.9629 3.5979C15.9624 3.51205 15.9281 3.42994 15.8674 3.36974C11.6775 -0.682491 5.06737 -0.682491 0.877435 3.36974C0.816741 3.4299 0.782311 3.51198 0.781745 3.59783C0.781193 3.68368 0.81457 3.76621 0.874474 3.82717L2.02388 4.9975C2.14219 5.11778 2.33451 5.11927 2.45465 5.00084C4.05121 3.46915 6.16989 2.61504 8.37277 2.61504ZM8.37277 6.42263C9.58299 6.42255 10.75 6.8765 11.6471 7.69628C11.7684 7.81262 11.9596 7.8101 12.0778 7.6906L13.2256 6.52027C13.286 6.45888 13.3196 6.3756 13.3187 6.28907C13.3178 6.20253 13.2827 6.11996 13.221 6.05982C10.4892 3.49541 6.25864 3.49541 3.52685 6.05982C3.46515 6.11996 3.42996 6.20257 3.42914 6.28913C3.42834 6.3757 3.46199 6.45897 3.52256 6.52027L4.67 7.6906C4.78828 7.8101 4.97941 7.81262 5.10074 7.69628C5.99723 6.87705 7.16335 6.42313 8.37277 6.42263ZM10.5785 9.2157C10.6399 9.15491 10.6737 9.07124 10.6719 8.98446C10.6702 8.89768 10.633 8.81548 10.5692 8.75727C9.30128 7.675 7.44423 7.675 6.17627 8.75727C6.11243 8.81544 6.07521 8.89761 6.07339 8.98439C6.07157 9.07117 6.10532 9.15486 6.16666 9.2157L8.15241 11.2377C8.21061 11.2971 8.28998 11.3306 8.37277 11.3306C8.45556 11.3306 8.5349 11.2971 8.5931 11.2377L10.5785 9.2157Z" fill="white"/>
</svg>
